<?xml version="1.0" encoding="UTF-8" standalone="no"?>
<!-- Created with Inkscape (http://www.inkscape.org/) -->

<svg
   xmlns:dc="http://purl.org/dc/elements/1.1/"
   xmlns:cc="http://creativecommons.org/ns#"
   xmlns:rdf="http://www.w3.org/1999/02/22-rdf-syntax-ns#"
   xmlns:svg="http://www.w3.org/2000/svg"
   xmlns="http://www.w3.org/2000/svg"
   xmlns:sodipodi="http://sodipodi.sourceforge.net/DTD/sodipodi-0.dtd"
   xmlns:inkscape="http://www.inkscape.org/namespaces/inkscape"
   width="907.16675"
   height="387.70053"
   viewBox="0 0 240.0212 102.5791"
   version="1.1"
   id="svg8"
   inkscape:export-filename="C:\Users\steph\Desktop\GDCOLogo-no-bg.png"
   inkscape:export-xdpi="96.000015"
   inkscape:export-ydpi="96.000015"
   inkscape:version="0.92.4 (5da689c313, 2019-01-14)"
   sodipodi:docname="LogoSmall-no-bg.svg">
  <defs
     id="defs2" />
  <sodipodi:namedview
     id="base"
     pagecolor="#001841"
     bordercolor="#666666"
     borderopacity="1.0"
     inkscape:pageopacity="0"
     inkscape:pageshadow="2"
     inkscape:zoom="0.7"
     inkscape:cx="174.1665"
     inkscape:cy="198.44787"
     inkscape:document-units="mm"
     inkscape:current-layer="g867"
     showgrid="false"
     inkscape:pagecheckerboard="true"
     inkscape:snap-page="true"
     inkscape:window-width="1920"
     inkscape:window-height="1001"
     inkscape:window-x="-9"
     inkscape:window-y="-9"
     inkscape:window-maximized="1"
     units="px"
     inkscape:snap-object-midpoints="false"
     fit-margin-top="16"
     fit-margin-left="16"
     fit-margin-right="16"
     fit-margin-bottom="16" />
  <metadata
     id="metadata5">
    <rdf:RDF>
      <cc:Work
         rdf:about="">
        <dc:format>image/svg+xml</dc:format>
        <dc:type
           rdf:resource="http://purl.org/dc/dcmitype/StillImage" />
        <dc:title></dc:title>
      </cc:Work>
    </rdf:RDF>
  </metadata>
  <g
     inkscape:label="Background"
     inkscape:groupmode="layer"
     id="layer1"
     transform="translate(-16.596659,-113.26413)" />
  <g
     inkscape:groupmode="layer"
     id="layer2"
     inkscape:label="Computer"
     transform="translate(-16.596659,-840.26414)">
    <g
       id="g875"
       transform="matrix(1.4296897,0,0,1.4296897,-92.492599,-472.45332)">
      <g
         id="g915"
         transform="translate(2.6437638,13.218819)">
        <g
           id="g867"
           transform="matrix(0.16770381,0,0,0.16770381,82.461588,849.86869)">
          <g
             transform="matrix(2.1126918,0,0,2.1126918,-462.71276,-172.16756)"
             id="g851">
            <g
               id="g832">
              <path
                 inkscape:connector-curvature="0"
                 id="rect818"
                 d="m 457.80719,-387.92791 c -0.54888,-0.002 -1.37142,0.0857 -1.85518,0.56949 -0.89713,0.89712 -0.86868,2.5368 -0.86868,2.5368 v 83.5887 c 0,0 -0.22082,2.0297 0.73482,2.98535 0.83704,0.837 2.81639,1.06918 2.81639,1.06918 h 56.1268 c 0,0 1.98573,-0.23495 2.88663,-1.13586 0.95565,-0.95565 0.93536,-2.91867 0.93536,-2.91867 v -82.5862 c 0,0 0.0248,-2.04432 -0.93536,-3.00444 -0.9009,-0.90091 -2.88663,-1.06919 -2.88663,-1.06919 h -56.39398 c 0,0 -0.23085,-0.0339 -0.56017,-0.0352 z m 28.62357,62.42719 a 7.4835466,7.4835466 0 0 1 7.48327,7.48329 7.4835466,7.4835466 0 0 1 -7.48327,7.48377 7.4835466,7.4835466 0 0 1 -7.48376,-7.48377 7.4835466,7.4835466 0 0 1 7.48376,-7.48329 z"
                 style="opacity:1;vector-effect:none;fill:#dfdfdf;fill-opacity:1;stroke:none;stroke-width:2;stroke-linecap:butt;stroke-linejoin:miter;stroke-miterlimit:4;stroke-dasharray:none;stroke-dashoffset:0;stroke-opacity:1"
                 transform="translate(0,726.99999)" />
              <path
                 inkscape:connector-curvature="0"
                 id="rect820"
                 transform="scale(0.26458333)"
                 d="m 830.62695,927.32031 c -5.53523,-0.0547 -28.83488,0.88566 -47.3789,19.42969 -20.36206,20.36205 -17.63086,42.37305 -17.63086,42.37305 v 470.61915 c 0,0 -3.36132,24.8984 21.15625,49.416 20.77765,20.7776 52.03711,24.6816 52.03711,24.6816 h 743.63675 c 0,0 28.6338,-0.9502 52.3203,-24.6367 23.8939,-23.8942 23.8633,-53.0508 23.8633,-53.0508 V 987.36914 c 0,0 0.7971,-24.14616 -16.4336,-41.37695 -19.1985,-19.19842 -48.8106,-18.63672 -48.8106,-18.63672 h -761.541 c 0,0 -0.428,-0.0273 -1.21875,-0.0352 z m 9.33985,58.06446 h 747.2344 c 0,0 8.2014,0.74825 12.1152,4.66211 3.7988,3.79879 4.4883,11.45512 4.4883,11.45512 v 386.3144 c 0,0 0.2305,8.8359 -3.4531,12.5195 -3.5686,3.5686 -11.6856,3.1075 -11.6856,3.1075 H 836.05859 c 0,0 -5.55976,-1.1496 -8.55273,-4.1426 -3.22318,-3.2232 -4.14453,-9.5313 -4.14453,-9.5313 v -386.3144 c 0,0 -0.80606,-9.66849 3.45312,-13.92776 3.91389,-3.91385 13.15235,-4.14257 13.15235,-4.14257 z m 369.1855,448.36323 a 35.355338,35.355338 0 0 1 35.3555,35.3555 35.355338,35.355338 0 0 1 -35.3555,35.3555 35.355338,35.355338 0 0 1 -35.3554,-35.3555 35.355338,35.355338 0 0 1 35.3554,-35.3555 z"
                 style="opacity:1;vector-effect:none;fill:#dfdfdf;fill-opacity:1;stroke:none;stroke-width:4.66441631;stroke-linecap:butt;stroke-linejoin:miter;stroke-miterlimit:4;stroke-dasharray:none;stroke-dashoffset:0;stroke-opacity:1" />
            </g>
            <path
               style="opacity:1;vector-effect:none;fill:#dfdfdf;fill-opacity:1;stroke:none;stroke-width:2;stroke-linecap:butt;stroke-linejoin:miter;stroke-miterlimit:4;stroke-dasharray:none;stroke-dashoffset:0;stroke-opacity:1"
               d="m 291.0416,411.30084 v 5.85856 h -6.23631 c 0,0 -7.37063,0.31504 -7.37063,6.70915 0,7.05554 7.37063,7.27604 7.37063,7.27604 h 72.94903 c 0,0 7.18146,-10e-5 7.18146,-6.70914 0,-7.27607 -7.18146,-7.27605 -7.18146,-7.27605 h -6.61458 v -5.85856 z"
               id="rect1391"
               inkscape:connector-curvature="0" />
          </g>
          <g
             id="g850"
             transform="matrix(1.5603429,0,0,1.5603429,-268.27831,-257.22062)">
            <path
               style="opacity:1;vector-effect:none;fill:none;fill-opacity:1;stroke:#dfdfdf;stroke-width:17.5;stroke-linecap:butt;stroke-linejoin:miter;stroke-miterlimit:4;stroke-dasharray:none;stroke-dashoffset:0;stroke-opacity:1"
               d="m 224.5064,446.16327 -27.26149,33.67598 27.79603,30.4687"
               id="path855"
               inkscape:connector-curvature="0" />
            <path
               inkscape:connector-curvature="0"
               id="path881"
               d="m 400.97676,446.16327 27.26149,33.67598 -27.79603,30.4687"
               style="opacity:1;vector-effect:none;fill:none;fill-opacity:1;stroke:#dfdfdf;stroke-width:17.5;stroke-linecap:butt;stroke-linejoin:miter;stroke-miterlimit:4;stroke-dasharray:none;stroke-dashoffset:0;stroke-opacity:1" />
            <path
               style="opacity:1;vector-effect:none;fill:none;fill-opacity:1;stroke:#dfdfdf;stroke-width:15;stroke-linecap:round;stroke-linejoin:round;stroke-miterlimit:4;stroke-dasharray:none;stroke-dashoffset:0;stroke-opacity:1;paint-order:normal"
               d="m 263.82738,460.59962 v 20.05961 h -19.0593 36.82812 -18.1468 v 19.34949"
               id="path883"
               inkscape:connector-curvature="0"
               sodipodi:nodetypes="cccccc" />
            <path
               style="opacity:1;vector-effect:none;fill:none;fill-opacity:1;stroke:#dfdfdf;stroke-width:15;stroke-linecap:butt;stroke-linejoin:miter;stroke-miterlimit:4;stroke-dasharray:none;stroke-dashoffset:0;stroke-opacity:1;paint-order:normal"
               d="m 330.35119,437.00298 -33.26191,86.55654"
               id="path885"
               inkscape:connector-curvature="0"
               sodipodi:nodetypes="cc" />
            <g
               id="g839">
              <circle
                 r="8.9581881"
                 cy="464.95566"
                 cx="364.035"
                 id="path891"
                 style="opacity:1;vector-effect:none;fill:#dfdfdf;fill-opacity:1;stroke:none;stroke-width:14.81275177;stroke-linecap:butt;stroke-linejoin:miter;stroke-miterlimit:4;stroke-dasharray:none;stroke-dashoffset:0;stroke-opacity:1;paint-order:normal" />
              <circle
                 r="8.9581881"
                 cy="481.20474"
                 cx="380.49515"
                 id="path891-7"
                 style="opacity:1;vector-effect:none;fill:#dfdfdf;fill-opacity:1;stroke:none;stroke-width:14.81275177;stroke-linecap:butt;stroke-linejoin:miter;stroke-miterlimit:4;stroke-dasharray:none;stroke-dashoffset:0;stroke-opacity:1;paint-order:normal" />
              <circle
                 r="8.9581881"
                 cy="496.95273"
                 cx="364.20926"
                 id="path891-6"
                 style="opacity:1;vector-effect:none;fill:#dfdfdf;fill-opacity:1;stroke:none;stroke-width:14.81275177;stroke-linecap:butt;stroke-linejoin:miter;stroke-miterlimit:4;stroke-dasharray:none;stroke-dashoffset:0;stroke-opacity:1;paint-order:normal" />
              <circle
                 r="8.9581881"
                 cy="480.80426"
                 cx="348.32385"
                 id="path891-1"
                 style="opacity:1;vector-effect:none;fill:#dfdfdf;fill-opacity:1;stroke:none;stroke-width:14.81275177;stroke-linecap:butt;stroke-linejoin:miter;stroke-miterlimit:4;stroke-dasharray:none;stroke-dashoffset:0;stroke-opacity:1;paint-order:normal" />
            </g>
          </g>
        </g>
        <g
           aria-label="GDC"
           style="font-style:normal;font-weight:normal;font-size:20.67544746px;line-height:1.25;font-family:sans-serif;letter-spacing:0px;word-spacing:0px;fill:#dfdfdf;fill-opacity:1;stroke:none;stroke-width:0.51688617"
           id="text871"
           transform="matrix(1.5603429,0,0,1.5603429,-91.198061,-519.35478)">
          <path
             d="m 175.19638,924.36032 h 3.05997 v 5.87183 q -1.1785,0.88904 -2.72916,1.36458 -1.55066,0.47553 -3.12199,0.47553 -2.25362,0 -4.05239,-0.95107 -1.79876,-0.97174 -2.83253,-2.66713 -1.0131,-1.71606 -1.0131,-3.86631 0,-2.15025 1.0131,-3.84563 1.03377,-1.71606 2.85321,-2.66713 1.81944,-0.97175 4.09374,-0.97175 1.90214,0 3.4528,0.64094 1.55065,0.64094 2.6051,1.86079 l -2.15024,1.98484 q -1.55066,-1.63336 -3.74226,-1.63336 -1.38526,0 -2.46038,0.57891 -1.07512,0.57892 -1.67471,1.63336 -0.59959,1.05445 -0.59959,2.41903 0,1.34391 0.59959,2.39835 0.59959,1.05445 1.65404,1.65404 1.07512,0.57891 2.4397,0.57891 1.44728,0 2.6051,-0.62026 z"
             style="font-style:normal;font-variant:normal;font-weight:bold;font-stretch:normal;font-family:Montserrat;-inkscape-font-specification:'Montserrat Bold';fill:#dfdfdf;fill-opacity:1;stroke-width:0.51688617"
             id="path1409"
             inkscape:connector-curvature="0" />
          <path
             d="m 181.36768,917.35134 h 6.5748 q 2.357,0 4.15576,0.90972 1.81944,0.88905 2.81186,2.52241 1.0131,1.63336 1.0131,3.80428 0,2.17092 -1.0131,3.80428 -0.99242,1.63336 -2.81186,2.54308 -1.79876,0.88905 -4.15576,0.88905 h -6.5748 z m 6.40939,11.72298 q 2.17092,0 3.4528,-1.19917 1.30255,-1.21985 1.30255,-3.2874 0,-2.06754 -1.30255,-3.26672 -1.28188,-1.21985 -3.4528,-1.21985 h -3.05996 v 8.97314 z"
             style="font-style:normal;font-variant:normal;font-weight:bold;font-stretch:normal;font-family:Montserrat;-inkscape-font-specification:'Montserrat Bold';fill:#dfdfdf;fill-opacity:1;stroke-width:0.51688617"
             id="path1411"
             inkscape:connector-curvature="0" />
          <path
             d="m 205.37543,932.07226 q -2.21227,0 -4.01104,-0.95107 -1.77808,-0.97174 -2.81186,-2.66713 -1.01309,-1.71606 -1.01309,-3.86631 0,-2.15025 1.01309,-3.84563 1.03378,-1.71606 2.81186,-2.66713 1.79877,-0.97175 4.03172,-0.97175 1.88146,0 3.39077,0.66161 1.52998,0.66162 2.56375,1.90214 l -2.15024,1.98485 q -1.46796,-1.69539 -3.63888,-1.69539 -1.3439,0 -2.39835,0.59959 -1.05445,0.57891 -1.65404,1.63336 -0.57891,1.05445 -0.57891,2.39835 0,1.34391 0.57891,2.39835 0.59959,1.05445 1.65404,1.65404 1.05445,0.57891 2.39835,0.57891 2.17092,0 3.63888,-1.71606 l 2.15024,1.98484 q -1.03377,1.2612 -2.56375,1.92282 -1.52998,0.66161 -3.41145,0.66161 z"
             style="font-style:normal;font-variant:normal;font-weight:bold;font-stretch:normal;font-family:Montserrat;-inkscape-font-specification:'Montserrat Bold';fill:#dfdfdf;fill-opacity:1;stroke-width:0.51688617"
             id="path1413"
             inkscape:connector-curvature="0" />
        </g>
        <g
           aria-label="CHS"
           style="font-style:normal;font-weight:normal;font-size:13.77972507px;line-height:1.25;font-family:sans-serif;letter-spacing:0px;word-spacing:0px;fill:#dfdfdf;fill-opacity:1;stroke:none;stroke-width:0.34449312"
           id="text871-2"
           transform="matrix(1.5603429,0,0,1.5603429,-91.198061,-519.35478)">
          <path
             d="m 187.45296,945.87886 q -1.47443,0 -2.67326,-0.63387 -1.18506,-0.64765 -1.87405,-1.77758 -0.6752,-1.14372 -0.6752,-2.57681 0,-1.43309 0.6752,-2.56303 0.68899,-1.14372 1.87405,-1.77759 1.19883,-0.64764 2.68704,-0.64764 1.25396,0 2.25988,0.44095 1.0197,0.44095 1.70868,1.26773 l -1.43309,1.32286 q -0.97836,-1.12994 -2.42523,-1.12994 -0.89568,0 -1.59845,0.39961 -0.70276,0.38583 -1.10237,1.0886 -0.38584,0.70277 -0.38584,1.59845 0,0.89568 0.38584,1.59845 0.39961,0.70276 1.10237,1.10237 0.70277,0.38584 1.59845,0.38584 1.44687,0 2.42523,-1.14372 l 1.43309,1.32285 q -0.68898,0.84057 -1.70868,1.28152 -1.0197,0.44095 -2.27366,0.44095 z"
             style="font-style:normal;font-variant:normal;font-weight:bold;font-stretch:normal;font-family:Montserrat;-inkscape-font-specification:'Montserrat Bold';fill:#dfdfdf;fill-opacity:1;stroke-width:0.34449312"
             id="path1416"
             inkscape:connector-curvature="0" />
          <path
             d="m 201.77591,936.06769 v 9.64581 h -2.23231 v -3.95478 h -4.38196 v 3.95478 h -2.23231 v -9.64581 h 2.23231 v 3.80321 h 4.38196 v -3.80321 z"
             style="font-style:normal;font-variant:normal;font-weight:bold;font-stretch:normal;font-family:Montserrat;-inkscape-font-specification:'Montserrat Bold';fill:#dfdfdf;fill-opacity:1;stroke-width:0.34449312"
             id="path1418"
             inkscape:connector-curvature="0" />
          <path
             d="m 207.24086,945.87886 q -1.14371,0 -2.21853,-0.30316 -1.06104,-0.31693 -1.70869,-0.813 l 0.75789,-1.68113 q 0.62009,0.45473 1.47443,0.73033 0.85434,0.27559 1.70868,0.27559 0.95081,0 1.40554,-0.27559 0.45473,-0.28938 0.45473,-0.75789 0,-0.34449 -0.2756,-0.56496 -0.26181,-0.23426 -0.68898,-0.37206 -0.4134,-0.13779 -1.12994,-0.30315 -1.10238,-0.26182 -1.80514,-0.52363 -0.70277,-0.26182 -1.21262,-0.84056 -0.49607,-0.57875 -0.49607,-1.54333 0,-0.84057 0.45473,-1.51577 0.45473,-0.68899 1.36419,-1.0886 0.92324,-0.39961 2.2461,-0.39961 0.92324,0 1.80514,0.22047 0.8819,0.22048 1.54333,0.63387 l -0.68899,1.69491 q -1.33663,-0.75789 -2.67326,-0.75789 -0.93702,0 -1.39175,0.30315 -0.44096,0.30316 -0.44096,0.79923 0,0.49607 0.50985,0.7441 0.52363,0.23426 1.58467,0.46851 1.10238,0.26182 1.80515,0.52363 0.70276,0.26182 1.19883,0.82679 0.50985,0.56497 0.50985,1.52955 0,0.82678 -0.46851,1.51577 -0.45473,0.6752 -1.37797,1.07482 -0.92324,0.39961 -2.2461,0.39961 z"
             style="font-style:normal;font-variant:normal;font-weight:bold;font-stretch:normal;font-family:Montserrat;-inkscape-font-specification:'Montserrat Bold';fill:#dfdfdf;fill-opacity:1;stroke-width:0.34449312"
             id="path1420"
             inkscape:connector-curvature="0" />
        </g>
      </g>
    </g>
  </g>
</svg>
